<svg id="Layer_1" enable-background="new 0 0 512 512" height="512" viewBox="0 0 512 512" width="512" xmlns="http://www.w3.org/2000/svg"><g clip-rule="evenodd" fill-rule="evenodd"><path d="m286.373 20.325c3.71-2.381 8.649-1.304 11.031 2.406 2.382 3.711 1.304 8.65-2.407 11.031l-16.92 10.846c16.856 3.552 33.404 9.047 49.291 16.502 20.532 9.633 39.928 22.504 57.419 38.64 45.996 42.431 70.44 99.495 72.777 157.456 2.337 57.951-17.429 116.787-59.85 162.773-42.429 45.996-99.495 70.439-157.456 72.775-57.949 2.337-116.787-17.428-162.773-59.85-45.994-42.428-70.437-99.493-72.775-157.454-2.336-57.949 17.43-116.786 59.85-162.771 18.572-20.133 39.989-36.148 63.086-47.996 23.977-12.301 49.683-20.076 75.826-23.281 4.385-.534 8.371 2.586 8.906 6.969.535 4.385-2.584 8.372-6.969 8.907-24.408 2.991-48.314 10.204-70.514 21.593-21.395 10.975-41.279 25.861-58.586 44.621-39.451 42.767-57.834 97.469-55.662 151.334 2.172 53.855 24.894 106.888 67.65 146.33 42.768 39.451 97.469 57.834 151.336 55.662 53.855-2.17 106.888-24.893 146.331-67.65 39.452-42.768 57.834-97.469 55.662-151.336-2.172-53.855-24.895-106.888-67.652-146.331-16.323-15.058-34.344-27.032-53.356-35.953-14.273-6.697-29.128-11.693-44.262-15.001l12.416 14.66c2.847 3.365 2.428 8.402-.938 11.25s-8.402 2.428-11.251-.938l-26.33-31.092c-.269-.305-.519-.633-.743-.984-2.382-3.71-1.305-8.649 2.406-11.031z" fill="#4d5c7d"/><g><path d="m231.14 422.501c86.014 0 156.165-70.152 156.165-156.166s-70.152-156.166-156.165-156.166-156.166 70.152-156.166 156.166 70.152 156.166 156.166 156.166z" fill="#fad808"/><path d="m231.14 386.135c65.982 0 119.799-53.816 119.799-119.8 0-65.982-53.816-119.799-119.799-119.799s-119.8 53.816-119.8 119.799 53.816 119.8 119.8 119.8z" fill="#eff4f7"/><path d="m239.14 254.958c3.608-1.406 7.801-.003 9.789 3.457 2.192 3.814.877 8.684-2.938 10.876l-6.852 3.956v7.988c0 4.418-3.583 8-8 8-4.006 0-7.324-2.943-7.909-6.785l-41.888 24.184c-3.814 2.209-8.697.908-10.906-2.906-2.21-3.814-.908-8.697 2.906-10.906l49.797-28.75v-83.561c0-4.418 3.581-8 8-8 4.417 0 8 3.582 8 8v74.447z" fill="#4d5c7d"/></g><g><path d="m422.793 473.634c46.642 0 84.682-38.039 84.682-84.681s-38.04-84.683-84.682-84.683c-46.641 0-84.682 38.041-84.682 84.683s38.041 84.681 84.682 84.681z" fill="#62a4fb"/><path d="m454.856 350.335c4.794-4.793 12.566-4.793 17.359 0 4.794 4.794 4.794 12.566 0 17.359l-59.876 59.877c-5.429 5.429-14.398 4.575-18.755-1.665l-25.191-31.701c-4.211-5.297-3.331-13.005 1.967-17.216 5.296-4.211 13.004-3.33 17.215 1.967l17.119 21.543z" fill="#eff4f7"/></g></g></svg>