<svg id="Capa_1" enable-background="new 0 0 512 512" viewBox="0 0 512 512" xmlns="http://www.w3.org/2000/svg"><g><path d="m512 73.755c0-14.224-11.531-25.755-25.755-25.755h-460.49c-14.224 0-25.755 11.531-25.755 25.755v38.245l256 16 256-16z" fill="#7bacdf"/><path d="m492.035 48.653c.257 1.461.392 2.963.392 4.497v60.072l19.573-1.222v-38.245c0-12.234-8.529-22.475-19.965-25.102z" fill="#5f99d7"/><path d="m0 112v326.245c0 14.224 11.531 25.755 25.755 25.755h460.491c14.223 0 25.754-11.531 25.754-25.755v-326.245z" fill="#f3f0f3"/><path d="m492.427 112v305.642c0 14.224-11.531 25.755-25.755 25.755h-460.491c-1.991 0-3.929-.226-5.789-.653 2.127 12.078 12.673 21.256 25.363 21.256h460.491c14.223 0 25.754-11.531 25.754-25.755v-326.245z" fill="#e2dee2"/><path d="m64 87.726h-32c-4.268 0-7.726-3.459-7.726-7.726s3.459-7.726 7.726-7.726h32c4.268 0 7.726 3.459 7.726 7.726s-3.458 7.726-7.726 7.726z" fill="#3c87d0"/><g><g><g><circle cx="474.849" cy="80" fill="#f3f0f3" r="7.726"/></g></g></g><g><g><g><g><circle cx="442.849" cy="80" fill="#f3f0f3" r="7.726"/></g></g></g></g><g><g><g><g><circle cx="410.849" cy="80" fill="#f3f0f3" r="7.726"/></g></g></g></g><path d="m96 224 72.598 56.598c18.888-7.97 26.243-15.07 22.249-40.598z" fill="#ffe177"/><path d="m191.309 237.616c-3.104 17.46-11.872 32.961-24.337 44.535l17.596 14.418c14.478-14.478 23.432-34.478 23.432-56.569z" fill="#ffd15b"/><path d="m190.847 240c26.026-22.819-12.782-62.401-12.782-62.401-13.705-11.011-31.116-17.599-50.065-17.599l-16 48 16 32z" fill="#7bacdf"/><path d="m128 160c-44.183 0-80 35.817-80 80 0 17.086 5.357 32.922 14.482 45.918 14.472 20.611 39.413 26.356 66.509 26.356 22.091 0 25.13-17.198 39.607-31.676l-40.598-40.598z" fill="#91deb6"/><path d="m192.547 223.517c0 5.65-.586 11.164-1.7 16.483h17.153c0-25.234-11.683-47.738-29.935-62.401 9.126 12.997 14.482 28.832 14.482 45.918z" fill="#5f99d7"/><path d="m112.547 303.517c-18.949 0-36.359-6.588-50.065-17.599 14.471 20.611 38.422 34.082 65.518 34.082 22.091 0 42.091-8.954 56.569-23.431l-15.97-15.97c-14.435 14.175-34.223 22.918-56.052 22.918z" fill="#6ed5a1"/><path d="m301.425 320h-26.849c-1.422 0-2.575-1.153-2.575-2.575v-74.849c0-1.422 1.153-2.575 2.575-2.575h26.849c1.422 0 2.575 1.153 2.575 2.575v74.849c0 1.422-1.153 2.575-2.575 2.575z" fill="#ffe177"/><path d="m365.425 320h-26.849c-1.422 0-2.575-1.153-2.575-2.575v-122.85c0-1.422 1.153-2.575 2.575-2.575h26.849c1.422 0 2.575 1.153 2.575 2.575v122.849c0 1.423-1.153 2.576-2.575 2.576z" fill="#91deb6"/><path d="m429.425 320h-26.849c-1.422 0-2.575-1.153-2.575-2.575v-58.849c0-1.422 1.153-2.575 2.575-2.575h26.849c1.422 0 2.575 1.153 2.575 2.575v58.849c0 1.422-1.153 2.575-2.575 2.575z" fill="#7bacdf"/><path d="m245.151 352c-2.845 0-5.151 2.306-5.151 5.151v21.698c0 2.845 2.306 5.151 5.151 5.151h42.849l16-16-16-16z" fill="#ffe177"/><path d="m458.849 352h-90.849l-16 16 16 16h90.849c2.845 0 5.151-2.306 5.151-5.151v-21.698c0-2.845-2.306-5.151-5.151-5.151z" fill="#91deb6"/><path d="m288 352h80v32h-80z" fill="#7bacdf"/><g fill="#918291"><path d="m464 327.726h-224c-4.267 0-7.726-3.459-7.726-7.726s3.459-7.726 7.726-7.726h224c4.267 0 7.726 3.459 7.726 7.726s-3.459 7.726-7.726 7.726z"/><path d="m192 375.726h-112c-4.267 0-7.726-3.459-7.726-7.726s3.459-7.726 7.726-7.726h112c4.267 0 7.726 3.459 7.726 7.726s-3.459 7.726-7.726 7.726z"/><path d="m192 407.726h-112c-4.267 0-7.726-3.459-7.726-7.726s3.459-7.726 7.726-7.726h112c4.267 0 7.726 3.459 7.726 7.726s-3.459 7.726-7.726 7.726z"/></g><g><g><g><circle cx="48" cy="368" fill="#7bacdf" r="7.726"/></g></g></g><g><g><g><circle cx="48" cy="400" fill="#91deb6" r="7.726"/></g></g></g></g><g/><g/><g/><g/><g/><g/><g/><g/><g/><g/><g/><g/><g/><g/><g/></svg>