<svg id="Layer_1" enable-background="new 0 0 68 68" height="512" viewBox="0 0 68 68" width="512" xmlns="http://www.w3.org/2000/svg"><g id="_x34_"><g><g><g><path d="m18.4888115 48.436367h-1.322485v-29.751421h16.9559765c1.2937508 0 2.3463173 1.0525646 2.3463173 2.345993v6.6498852h-1.3224869v-6.6498852c0-.5643806-.4594498-1.0235062-1.0238304-1.0235062h-15.6334915z" fill="#272d4f"/></g></g></g><g><g><g><path d="m4.151 46.346h29.096v11.28h-29.096z" fill="#18293d"/></g></g><g><g><g><path d="m33.6276398 56.1731644h-29.8570676c-.8250909 0-1.493959-.668869-1.493959-1.4939575v-5.3860283c0-.8250923.6688681-1.4939575 1.493959-1.4939575h29.8570671c.8250885 0 1.4939575.6688652 1.4939575 1.4939575v5.3860283c.0000005.8250884-.6688685 1.4939575-1.493957 1.4939575z" fill="#5e6d84"/></g></g><g><g><g><g><path d="m32.5676689 50.0267334v1.3572655c0 .199604-.1596947.3673363-.3592949.3673363h-1.3652611c-.1996021 0-.3672886-.1677322-.3672886-.3673363v-1.3572655c0-.2075958.1676865-.3673363.3672886-.3673363h1.3652611c.1996002 0 .3592949.1597405.3592949.3673363z" fill="#fff"/></g></g><g><g><path d="m32.6360435 52.7306671v1.3572655c0 .199604-.1596909.3673401-.3592949.3673401h-1.3652592c-.199604 0-.3672886-.1677361-.3672886-.3673401v-1.3572655c0-.2075958.1676846-.3673363.3672886-.3673363h1.3652592c.1996041 0 .3592949.1597405.3592949.3673363z" fill="#fec400"/></g></g></g><g><g><g><path d="m29.7957783 50.0267334v1.3572655c0 .199604-.1596928.3673363-.3592968.3673363h-1.3652592c-.199604 0-.3672886-.1677322-.3672886-.3673363v-1.3572655c0-.2075958.1676846-.3673363.3672886-.3673363h1.3652592c.199604 0 .3592968.1597405.3592968.3673363z" fill="#fff"/></g></g><g><g><path d="m29.7957783 52.6252518v1.3572655c0 .199604-.1596928.3673363-.3592968.3673363h-1.3652592c-.199604 0-.3672886-.1677322-.3672886-.3673363v-1.3572655c0-.2075958.1676846-.3673401.3672886-.3673401h1.3652592c.199604 0 .3592968.1597442.3592968.3673401z" fill="#fff"/></g></g></g><g><g><g><path d="m26.9555111 49.9213181v1.3572655c0 .199604-.1596928.3673363-.3592968.3673363h-1.3652592c-.199604 0-.3672886-.1677322-.3672886-.3673363v-1.3572655c0-.2075958.1676846-.3673401.3672886-.3673401h1.3652592c.199604 0 .3592968.1597442.3592968.3673401z" fill="#fec400"/></g></g><g><g><path d="m26.9555111 52.7306671v1.3572655c0 .199604-.1596928.3673401-.3592968.3673401h-1.3652592c-.199604 0-.3672886-.1677361-.3672886-.3673401v-1.3572655c0-.2075958.1676846-.3673363.3672886-.3673363h1.3652592c.199604 0 .3592968.1597405.3592968.3673363z" fill="#fff"/></g></g></g><g><g><path d="m13.721591 50.0654373v2.2978935c0 .2234802-.1836205.4071007-.4071999.4071007h-8.1278591c-.2235308 0-.4071994-.1836205-.4071994-.4071007v-2.2978935c0-.2235794.1836686-.4071999.4071994-.4071999h8.1278591c.2235794.0000001.4071999.1836205.4071999.4071999z" fill="#fff"/></g></g><g><g><g><path d="m7.1623468 51.2142754c0 .4255791-.3463964.7719154-.7719169.7719154-.4255209 0-.7718563-.3463364-.7718563-.7719154 0-.4255829.3463354-.7717972.7718563-.7717972.4255205 0 .7719169.3462143.7719169.7717972z" fill="#fec400"/></g></g><g><g><path d="m9.0738735 51.2142754c0 .4255791-.3463955.7719154-.7719164.7719154s-.7718568-.3463364-.7718568-.7719154c0-.4255829.3463359-.7717972.7718568-.7717972s.7719164.3462143.7719164.7717972z" fill="#ff4f5a"/></g></g></g></g></g><g><g><g><path d="m33.6276398 66h-29.8570676c-.8250909 0-1.493959-.668869-1.493959-1.4939575v-5.3860283c0-.8250923.6688681-1.4939575 1.493959-1.4939575h29.8570671c.8250885 0 1.4939575.6688652 1.4939575 1.4939575v5.3860283c.0000005.8250885-.6688685 1.4939575-1.493957 1.4939575z" fill="#5e6d84"/></g></g><g><g><g><g><path d="m32.6360435 59.7830048v1.3572693c0 .1996002-.1596909.3673363-.3592949.3673363h-1.3652592c-.199604 0-.3672886-.1677361-.3672886-.3673363v-1.3572693c0-.2075958.1676846-.3673363.3672886-.3673363h1.3652592c.1996041 0 .3592949.1597404.3592949.3673363z" fill="#fec400"/></g></g><g><g><path d="m32.6360435 62.4869385v1.3572693c0 .1996002-.1596909.3673325-.3592949.3673325h-1.3652592c-.199604 0-.3672886-.1677322-.3672886-.3673325v-1.3572693c0-.2075958.1676846-.3673363.3672886-.3673363h1.3652592c.1996041 0 .3592949.1597405.3592949.3673363z" fill="#fff"/></g></g></g><g><g><g><path d="m29.7957783 59.7830048v1.3572693c0 .1996002-.1596928.3673363-.3592968.3673363h-1.3652592c-.199604 0-.3672886-.1677361-.3672886-.3673363v-1.3572693c0-.2075958.1676846-.3673363.3672886-.3673363h1.3652592c.199604 0 .3592968.1597404.3592968.3673363z" fill="#fff"/></g></g><g><g><path d="m29.7957783 62.4869385v1.3572693c0 .1996002-.1596928.3673325-.3592968.3673325h-1.3652592c-.199604 0-.3672886-.1677322-.3672886-.3673325v-1.3572693c0-.2075958.1676846-.3673363.3672886-.3673363h1.3652592c.199604 0 .3592968.1597405.3592968.3673363z" fill="#fff"/></g></g></g><g><g><g><path d="m26.9555111 59.7830048v1.3572693c0 .1996002-.1596928.3673363-.3592968.3673363h-1.3652592c-.199604 0-.3672886-.1677361-.3672886-.3673363v-1.3572693c0-.2075958.1676846-.3673363.3672886-.3673363h1.3652592c.199604 0 .3592968.1597404.3592968.3673363z" fill="#fff"/></g></g><g><g><path d="m26.9555111 62.4869385v1.3572693c0 .1996002-.1596928.3673325-.3592968.3673325h-1.3652592c-.199604 0-.3672886-.1677322-.3672886-.3673325v-1.3572693c0-.2075958.1676846-.3673363.3672886-.3673363h1.3652592c.199604 0 .3592968.1597405.3592968.3673363z" fill="#fec400"/></g></g></g><g><g><path d="m13.721591 59.8217125v2.2978897c0 .223484-.1836205.4071045-.4071999.4071045h-8.1278591c-.2235308 0-.4071994-.1836205-.4071994-.4071045v-2.2978897c0-.2235794.1836686-.4071999.4071994-.4071999h8.1278591c.2235794 0 .4071999.1836205.4071999.4071999z" fill="#fff"/></g></g><g><g><g><path d="m7.1623468 60.9705467c0 .4255829-.3463964.7719193-.7719169.7719193-.4255209 0-.7718563-.3463364-.7718563-.7719193 0-.4255791.3463354-.7717934.7718563-.7717934.4255205.0000001.7719169.3462144.7719169.7717934z" fill="#fec400"/></g></g><g><g><path d="m9.0738735 60.9705467c0 .4255829-.3463955.7719193-.7719164.7719193s-.7718568-.3463364-.7718568-.7719193c0-.4255791.3463359-.7717934.7718568-.7717934s.7719164.3462144.7719164.7717934z" fill="#ff4f5a"/></g></g></g></g></g><g><g><g><path d="m33.6276398 46.3463287h-29.8570676c-.8250909 0-1.493959-.668869-1.493959-1.4939575v-5.3860283c0-.8250923.6688681-1.4939575 1.493959-1.4939575h29.8570671c.8250885 0 1.4939575.6688652 1.4939575 1.4939575v5.3860283c.0000005.8250885-.6688685 1.4939575-1.493957 1.4939575z" fill="#5e6d84"/></g></g><g><g><g><g><path d="m32.5676689 40.1998978v1.3572655c0 .199604-.1596947.3673363-.3592949.3673363h-1.3652611c-.1996021 0-.3672886-.1677322-.3672886-.3673363v-1.3572655c0-.2075958.1676865-.3673363.3672886-.3673363h1.3652611c.1996002 0 .3592949.1597404.3592949.3673363z" fill="#fff"/></g></g><g><g><path d="m32.6360435 42.9038315v1.3572655c0 .199604-.1596909.3673401-.3592949.3673401h-1.3652592c-.199604 0-.3672886-.1677361-.3672886-.3673401v-1.3572655c0-.2075958.1676846-.3673363.3672886-.3673363h1.3652592c.1996041 0 .3592949.1597405.3592949.3673363z" fill="#fec400"/></g></g></g><g><g><g><path d="m29.7957783 40.1998978v1.3572655c0 .199604-.1596928.3673363-.3592968.3673363h-1.3652592c-.199604 0-.3672886-.1677322-.3672886-.3673363v-1.3572655c0-.2075958.1676846-.3673363.3672886-.3673363h1.3652592c.199604 0 .3592968.1597404.3592968.3673363z" fill="#fff"/></g></g><g><g><path d="m29.7957783 42.7984161v1.3572655c0 .199604-.1596928.3673363-.3592968.3673363h-1.3652592c-.199604 0-.3672886-.1677322-.3672886-.3673363v-1.3572655c0-.2075958.1676846-.3673401.3672886-.3673401h1.3652592c.199604 0 .3592968.1597443.3592968.3673401z" fill="#fff"/></g></g></g><g><g><g><path d="m26.9555111 40.0944786v1.3572693c0 .199604-.1596928.3673363-.3592968.3673363h-1.3652592c-.199604 0-.3672886-.1677322-.3672886-.3673363v-1.3572693c0-.207592.1676846-.3673363.3672886-.3673363h1.3652592c.199604 0 .3592968.1597443.3592968.3673363z" fill="#fec400"/></g></g><g><g><path d="m26.9555111 42.9038315v1.3572655c0 .199604-.1596928.3673401-.3592968.3673401h-1.3652592c-.199604 0-.3672886-.1677361-.3672886-.3673401v-1.3572655c0-.2075958.1676846-.3673363.3672886-.3673363h1.3652592c.199604 0 .3592968.1597405.3592968.3673363z" fill="#fff"/></g></g></g><g><g><path d="m13.721591 40.2386017v2.2978935c0 .2234802-.1836205.4071007-.4071999.4071007h-8.1278591c-.2235308 0-.4071994-.1836205-.4071994-.4071007v-2.2978935c0-.2235794.1836686-.4071999.4071994-.4071999h8.1278591c.2235794 0 .4071999.1836205.4071999.4071999z" fill="#fff"/></g></g><g><g><g><path d="m7.1623468 41.3874397c0 .4255791-.3463964.7719154-.7719169.7719154-.4255209 0-.7718563-.3463364-.7718563-.7719154 0-.4255829.3463354-.7717972.7718563-.7717972.4255205 0 .7719169.3462143.7719169.7717972z" fill="#fec400"/></g></g><g><g><path d="m9.0738735 41.3874397c0 .4255791-.3463955.7719154-.7719164.7719154s-.7718568-.3463364-.7718568-.7719154c0-.4255829.3463359-.7717972.7718568-.7717972s.7719164.3462143.7719164.7717972z" fill="#ff4f5a"/></g></g></g></g></g></g><g><g><g><g><g><path d="m54.0074768 65.7365799 2.5049515-19.1075363h-12.4612312l.0031089 19.1075363z" fill="#2b9bed"/></g></g></g><g><g><g><path d="m52.7216072 65.7365799-2.5049515-19.1075363h12.4612351l-.0031128 19.1075363z" fill="#64b5f4"/></g></g></g></g><g><g><g><g><g><g><g><g><path d="m39.3918228 31.885313.6771355-3.7845669h9.1906967c.0061455 2.9322529.012249 7.33881-.0061417 7.4308167-.0331383.1380844-11.8992386 4.1468239-12.1256409 4.0253296-.2263641-.1214943-5.3780994-.9277306-5.3780994-.9277306z" fill="#feb69e"/></g></g></g><g><g><g><path d="m40.0916176 32.073391h9.6938705c-.0060539-2.8940067-.0121078-6.5430222-.0121078-6.5430222l-3.1446114-5.3917313h-.0000076c-2.8212166 0-5.1996422 2.1884289-5.5444031 5.1014957l-.787117 6.6507854z" fill="#ff4f5a"/></g></g></g><g><g><g><g><g><g><path d="m44.0511971 23.2594376v23.7184105h18.6475792l.1509857-23.1710663c.0125961-2.0257969-1.6231804-3.6741676-3.6489792-3.6741676h-12.0227661c-1.7238236-.0000001-3.1268196 1.3967017-3.1268196 3.1268234z" fill="#ff4f5a"/></g></g></g></g></g></g><g><g><g><path d="m43.949 24.748h.287v7.327h-.287z" fill="#f73f4b"/></g></g></g><g><g><g><g><ellipse cx="47.236" cy="8.133" fill="#272d4f" rx="1.679" ry="2.756"/></g></g></g><g><g><g><g><path d="m59.4620132 10.4348049c0 1.7641296-1.4281998 4.1579294-3.1480942 4.316741-.0607605.0056772-.1215172.0056772-.1823158.0056772-1.4767876 0-2.6740036-1.6790628-3.056881-3.2900248-.0121651-.0510674-.024334-.0964565-.0303802-.1474895-.0668793-.3006573-.0972557-.6012802-.0972557-.8849039 0-.4311132.0790062-.845192.2309418-1.219595.3281631-.8565483 1.0027733-1.5372167 1.847496-1.8662295.3646622-.14749.7657509-.2269125 1.1790047-.2269125.0304184 0 .0547142 0 .0850945.0056777.7171211.0113559 1.3734818.266624 1.9022102.6863813.0364609.0226774.0729218.0567107.1093864.090744.1458511.1191349.2856522.2609463.4132538.4084358.4618836.5728904.7475395 1.3103391.7475395 2.1214982z" fill="#272d4f"/></g></g></g><g><g><g><path d="m50.508 13.561h5.378v6.566h-5.378z" fill="#feb69e"/></g></g></g><g><g><g><path d="m50.5061302 20.1303616 1.8664971.2168083 3.514431-.2168083z" fill="#feb69e"/></g></g></g><g><g><g><path d="m50.508461 12.4527245v5.0139847s2.3775978 1.229248 5.3778648.76828v-5.7822647z" fill="#f8957e"/></g></g></g><g><g><g><path d="m55.8822212 9.9637432v3.236269c0 2.5964565-2.1073151 4.7038479-4.7038498 4.7038479-2.5964928 0-4.703846-2.1073914-4.703846-4.7038479v-3.236269c0-1.2982283.5268478-2.4774055 1.3798027-3.3240061.846714-.8530316 2.0258141-1.3798413 3.3240433-1.3798413 2.5965348 0 4.7038498 2.1073146 4.7038498 4.7038474z" fill="#feb69e"/></g></g></g><g><g><g><path d="m58.7144737 8.3133068c-.3553123-8.844486-11.2558937-6.0363204-12.4267578-5.3282485-3.2499886 1.965414-3.8100014 6.6086822-.0119514 6.6086822 4.592926.5901842 8.7528877.5129671 12.4387092-1.2804337z" fill="#272d4f"/></g></g></g><g><g><g><ellipse cx="51.405" cy="11.588" fill="#272d4f" rx=".439" ry=".648"/></g></g></g><g><g><g><ellipse cx="48.282" cy="11.588" fill="#272d4f" rx=".439" ry=".648"/></g></g></g><g><g><g><path d="m51.5258408 14.174696c.0011101.0259333.0077209.0502777.0077209.0764704 0 .9854336-.7988396 1.7842722-1.7842369 1.7842722-.9854317 0-1.7842712-.7988386-1.7842712-1.7842722 0-.0261927.0066109-.0505371.0077209-.0764704z" fill="#fff"/></g></g></g></g><g><g><g><path d="m57.537262 10.7495394c.023159.8862638-.7002029 1.624115-1.6156731 1.648037s-.9993362-3.185524-.0838661-3.209446 1.676384.6751442 1.6995392 1.561409z" fill="#feb69e"/></g></g></g><g><g><g><path d="m54.2305756 8.2274075s.1318932 3.0174665.855854 3.5890932c.3726883.2942657.8613815-.381031.8613815-.8558874v-2.7332058c0-.4803834-.3865242-.8558874-.8613815-.8558874-.4748535-.0000001-.855854.375504-.855854.8558874z" fill="#272d4f"/></g></g></g></g><g><g><g><path d="m50.5084953 18.7845421-.9019241 1.352335 1.4812813 1.981966 1.2847748-1.7716732z" fill="#f2f6ff"/></g></g></g><g><g><g><path d="m52.3726273 20.3471699.9150924 2.094738 3.063221-2.3144512-.4638824-1.4056321z" fill="#f2f6ff"/></g></g></g><g><g><g><g><path d="m30.2174664 38.4758949v.7770691c0 .5475731.4438972.9914703.9914703.9914703h18.086771c.4883652 0 .8842659-.3959007.8842659-.8842697 0-.488369-.3959007-.8842697-.8842659-.8842697z" fill="#70afff"/></g></g></g><g><g><g><path d="m44.4140205 33.9852448c-.5050621.5531883-.6075897 2.9340324-.6075897 2.9340324-.0312233.3690186.2341614.696991.6015739.7434464h.0000038c.1770439.0223846.4270744-.1337929.6424713-.3391342.3816414-.3638191.9450989-.4637566 1.4452591-.2968559l2.1398773.7140846 1.5443573-4.3270493-2.0372429-1.5444641c-.2382431-.1806145-.5701981-.1705971-.7971153.0240574v.0000019c-.3354874.2877884-.2816734.8217506.1044922 1.0368042l.1535683.0855255s-2.6277084.3540535-3.1896553.9695511z" fill="#feb69e"/></g></g></g><g><g><g><path d="m27.616148 26.5337334 2.5996075 11.9397697h15.5466003l-2.7060394-12.3755646c-.1013222-.4408665-.4966011-.7499733-.9425392-.7499733h-13.5550595c-.6233177 0-1.084444.5827694-.9425697 1.1857682z" fill="#b3d4ff"/></g></g></g><g><g><g><path d="m34.6736679 33.0329247c.1607246.828373.982872 1.4959488 1.8359184 1.4959488.8468628 0 1.409359-.6675758 1.2486343-1.4959488-.1668739-.8221092-.9828339-1.4958687-1.8358803-1.4958687-.8468589 0-1.409397.6737594-1.2486724 1.4958687z" fill="#70afff"/></g></g></g></g></g></g><g><g><g><path d="m50.1799736 33.4137688 7.4118729 1.0060997s.1651115-2.3367844.2906609-4.3539486l7.4949493-.5313206v7.9335327c-.4285736 3.2612114-3.6788101 5.3604126-6.8276176 4.4096451l-9.9348907-4.1989594z" fill="#feb69e"/></g></g></g><g><g><g><path d="m57.4879875 20.1323395v11.4314155h8.2354012v-5.1777706c0-3.4539471-2.7996635-6.2536449-6.2536087-6.2536449z" fill="#ff4f5a"/></g></g></g><g><g><g><path d="m57.9115105 31.8565578-.0326119-.6612434h.0326119z" fill="#f26678"/></g></g></g><g><g><g><g><path d="m57.6275063 25.9732914v5.4149151h.2512817c.0762978 0 .1380424.0620098.1380424.1380405s-.0617447.1380424-.1380424.1380424h-.3893242c-.0762978 0-.1380424-.0620117-.1380424-.1380424v-5.5529556z" fill="#f73f4b"/></g></g></g></g></g><g><g><g><path d="m34.9965782 40.8070602h3.6099815c.2420883 0 .4383354-.1962509.4383354-.4383354v-.0000038c0-.9577179-.7763824-1.7341003-1.7341003-1.7341003h-1.0184517c-.9577179 0-1.7341003.7763824-1.7341003 1.7341003v.0000038c0 .2420845.1962509.4383354.4383354.4383354z" fill="#feb69e"/></g></g></g></g></g></g><g><g><g><g><path d="m2.7976534 18.7296867c0 2.5770054 2.0058591 4.6641598 4.4795265 4.6641598h17.2990742c3.2911224 0 5.9585266-2.7787857 5.9585266-6.2073231 0-3.4261341-2.6674042-6.207324-5.9585266-6.207324-.1961021 0-.392189.0097942-.583559.0295038.030714-.2658367.0448895-.536541.0448895-.8097687 0-4.0856776-3.180088-7.3985424-7.102026-7.3985424-3.3738232 0-6.1971531 2.4514186-6.9201136 5.7371826h-.0472558c-2.4736524 0-4.4795117 2.0896187-4.4795117 4.6641006 0 .4110737.0496054.8073053.146481 1.1863508-1.6609265.6817781-2.8375051 2.3677741-2.8375051 4.3416606z" fill="#deebfe"/></g></g></g><g><g><g><g><g><path d="m23.4560165 12.9547644c-.0062733-.2024288-.1537743-.3766613-.3562031-.4142809l-.4001369-.0784588c-.1380863-.0282726-.2589149-.1176872-.315403-.247941-.0172596-.0455112-.0408001-.092556-.0627613-.1364584-.0611992-.1302538-.0533562-.2808876.0188293-.4064665l.203989-.3483887c.1019917-.1772976.0690441-.4032488-.0800285-.541317l-.916397-.8552265c-.1475029-.1396008-.3750248-.1569166-.5444965-.0423708l-.335804.2260275c-.1176872.0784588-.268322.0988388-.400135.0470448-.0470734-.0172396-.0957184-.0376968-.1443615-.0549364-.1349564-.0470448-.2353745-.1615906-.2730331-.2981262l-.1019994-.3907595c-.0517864-.1976786-.2353764-.3326054-.440937-.3263988l-1.2521915.0439796c-.2024288.0062828-.3750324.1537752-.4126911.3530626l-.0784589.4017153c-.028244.139678-.1208286.2588978-.2510719.3153658-.0486431.0204573-.0941467.0408382-.1412201.0627518-.1271019.0612192-.2777443.051795-.4017048-.0187721l-.3483601-.2024288c-.1773167-.1019802-.4017067-.0675011-.5413656.0799913l-.8551884.9164457c-.139658.1474924-.1569166.3749752-.0423698.5444574l.2275305.3374319c.0800295.1160793.0988588.2667131.0470734.3984985-.0188293.047121-.0392294.0973063-.056488.1459599-.0439405.1349268-.1584873.2338428-.2965746.2714624l-.3891506.1019812c-.1992865.0517941-.3342333.2369833-.3263893.4409447l.043932 1.2521925c.0062828.2039604.1537848.3781939.356204.4158134l.3954334.0753174c.1396484.0282726.2604771.1176872.3154039.2510815.0203905.0455122.0423603.0926332.0659018.1412096.0612001.1271124.0517855.2777462-.0219707.4017162l-.2024183.3483887c-.1020002.1772976-.0674734.4032478.0800285.5413933l.9179583.8551502c.1490726.139677.3750343.1569157.5460682.0423698l.335804-.2259502c.1176872-.0784588.2683296-.0988388.3985653-.047121.0486431.0204582.095726.0376968.1459408.0549355.1365166.047121.2338028.1616669.2714615.2981262l.1019917.3907604c.0502129.1976776.2353745.3326817.439373.3263988l1.2537632-.0439796c.2055607-.0078144.3765945-.1537762.4142628-.3561268l.0784588-.3985748c.0282421-.1381454.1176872-.2589741.247921-.3138332.0486431-.0219898.095726-.042448.1412277-.0643616.1271038-.0643597.2808781-.0549355.4032784.0188484l.3483505.2024288c.1788864.1019802.4032764.0674267.5413647-.0800667l.8551979-.9179783c.139658-.1506329.1584873-.3749752.0439301-.5460663l-.2290916-.3388882c-.0784588-.1161556-.0988579-.263648-.0455112-.3955097.0188293-.0485773.0360966-.0956984.0502148-.1412096.0470715-.1364594.1616287-.2337666.299715-.2714634l.392292-.1051216c.1977158-.051795.3326626-.236907.3263798-.4378033zm-4.6117839 2.9673195c-1.2035484 0-2.1780033-.9760561-2.1780033-2.1780624 0-1.2019291.9744549-2.1779852 2.1780033-2.1779852 1.2019882 0 2.1780052.9760561 2.1780052 2.1779852 0 1.2020063-.976017 2.1780624-2.1780052 2.1780624z" fill="#ff4f5a"/></g></g></g></g><g><g><g><g><path d="m18.8442326 11.0686226c-1.4781513 0-2.6754265 1.1972561-2.6754265 2.6753988s1.1972752 2.6754751 2.6754265 2.6754751c1.4781532 0 2.6754284-1.1973314 2.6754284-2.6754751s-1.1972752-2.6753988-2.6754284-2.6753988zm0 4.8534613c-1.2035484 0-2.1780033-.9760561-2.1780033-2.1780624 0-1.2019291.9744549-2.1779852 2.1780033-2.1779852 1.2019882 0 2.1780052.9760561 2.1780052 2.1779852 0 1.2020063-.976017 2.1780624-2.1780052 2.1780624z" fill="#f73f4b"/></g></g></g></g></g><g><g><g><g><g><path d="m14.6272774 18.2783375c.02981-.1550922-.0526524-.3128586-.2002459-.3760643l-.2910442-.1280556c-.100235-.0451012-.1768942-.1337757-.1976204-.2425308-.0053568-.0375767-.0152311-.0773926-.0244398-.1145496-.024313-.1095581.00739-.2228298.083766-.3060474l.2147264-.2302246c.1078901-.1174755.1214237-.2950211.0315866-.425539l-.5511456-.8072662c-.0883789-.1314154-.2585335-.1834602-.4070473-.1252594l-.2941151.1146078c-.1029472.0395899-.2210407.0293627-.3124838-.0325651-.0328712-.0211582-.0663881-.0450335-.1004534-.0664606-.0946455-.0588503-.1514826-.1631594-.1568098-.2734776l-.01085-.3147392c-.0056305-.1592531-.1222658-.2932777-.2797298-.3236732l-.9602575-.1804609c-.1550932-.0298023-.3116188.0529318-.3743181.1981277l-.1283245.2922468c-.045352.10145-.1361637.176342-.2449083.1970568-.0405054.0072546-.0786085.0149879-.1181679.0236187-.1071663.0248652-.2201748-.0080404-.3024359-.0829096l-.2304716-.2135334c-.1174908-.1078854-.2941103-.1199865-.4255686-.0316238l-.8072443.5511885c-.1314583.0883617-.1834526.2584972-.1252527.4070187l.1154728.2956104c.0410604.1019917.0296526.21982-.0322628.3112431-.0223761.0326366-.0464716.0673351-.067915.1014042-.0564833.0951538-.1605358.1508465-.272028.15588l-.3135118.0111103c-.1604786.0053635-.2947912.1232128-.323668.2797394l-.1804967.9602489c-.0300641.1562595.0523987.3140259.1999846.3772297l.2880025.1248627c.1014233.0453682.178082.1340427.197084.2449207.0077391.0381126.0164061.0777187.0260191.1187.0248489.1071701-.008049.2201729-.0853457.301897l-.213531.2304935c-.1078968.1174736-.1202283.29529-.0316.4255981l.5523462.8074722c.0895615.1317425.2585411.1834621.4082432.1255283l.2941017-.1145497c.1029472-.0395889.2210474-.0293598.3113022.032238.0335159.0238762.0663948.0450363.101656.0667324.0958204.0591736.1502733.1629486.1556138.2732086l.0108433.3147373c.0044355.1589851.1222525.2933369.2785416.3234062l.9614525.1807289c.1577387.0291729.3128071-.0526638.3760366-.2001915l.1277885-.289856c.0450897-.1002827.1337862-.1769371.2422485-.1964283.0407677-.0084209.0800858-.0159435.1184511-.0248413.1077023-.027256.223094.0061855.3036175.0832348l.230464.2135334c.1186857.1081524.2953186.1201954.4255819.0315647l.8075132-.5523529c.1319942-.0907516.1846466-.2582283.1267147-.4079762l-.1164122-.2969837c-.0398521-.1017818-.0301762-.2174892.0329409-.3087044.022625-.0337429.0438137-.0666447.0623302-.0988617.0591288-.0957851.1629133-.1502514.2744188-.1553421l.3164387-.0129642c.1592827-.0056305.2935829-.1234226.323123-.2773495zm-4.0158606 1.4698467c-.9157333-.2056141-1.4904108-1.1147308-1.2850618-2.0292912.2053366-.9145012 1.1135101-1.4906693 2.0292435-1.2850571.914546.2053471 1.4904118 1.1147308 1.2850752 2.029232-.20535.9145604-1.1147118 1.4904615-2.0292569 1.2851163z" fill="#fec400"/></g></g></g></g><g><g><g><g><path d="m11.4405766 16.0553741c-1.1246691-.2525263-2.2401676.4538784-2.492692 1.5785389-.2525244 1.1246624.4538851 2.2402077 1.5785542 2.492733 1.1246691.2525272 2.240181-.4539356 2.4927044-1.578598.2525243-1.1246624-.4538976-2.2401485-1.5785666-2.4926739zm-.8291598 3.6928101c-.9157333-.2056141-1.4904108-1.1147308-1.2850618-2.0292912.2053366-.9145012 1.1135101-1.4906693 2.0292435-1.2850571.914546.2053471 1.4904118 1.1147308 1.2850752 2.029232-.20535.9145604-1.1147118 1.4904615-2.0292569 1.2851163z" fill="#ffab00"/></g></g></g></g></g></g></g></svg>