<svg id="Capa_1" enable-background="new 0 0 511.971 511.971" height="512" viewBox="0 0 511.971 511.971" width="512" xmlns="http://www.w3.org/2000/svg"><g><circle cx="135.985" cy="45" fill="#ffd9b3" r="45"/><path d="m210.985 180h-150v-15c0-41.355 33.645-75 75-75s75 33.645 75 75z" fill="#80bfff"/><path d="m210.985 180v-15c0-41.355-33.645-75-75-75v90z" fill="#69f"/><path d="m180.985 45c0-24.813-20.187-45-45-45v90c24.813 0 45-20.187 45-45z" fill="#fb9"/><circle cx="375.985" cy="45" fill="#ffd9b3" r="45"/><path d="m450.985 180h-150v-15c0-41.355 33.645-75 75-75s75 33.645 75 75z" fill="#80bfff"/><path d="m450.985 180v-15c0-41.355-33.645-75-75-75v90z" fill="#69f"/><path d="m420.985 45c0-24.813-20.187-45-45-45v90c24.813 0 45-20.187 45-45z" fill="#fb9"/><circle cx="255.985" cy="197" fill="#ffd9b3" r="45"/><path d="m330.985 332h-150v-15c0-41.355 33.645-75 75-75s75 33.645 75 75z" fill="#80bfff"/><path d="m330.985 332v-15c0-41.355-33.645-75-75-75v90z" fill="#69f"/><path d="m300.985 197c0-24.813-20.187-45-45-45v90c24.813 0 45-20.187 45-45z" fill="#fb9"/><path d="m420.985 302h-330v30h38.787l81.213 81.213v98.758l90-45v-53.758l81.213-81.213h38.787z" fill="#ffdf40"/><path d="m255.985 489.471 45-22.5v-53.758l81.213-81.213h38.787v-30h-165z" fill="#ff9f40"/></g></svg>