<svg height="512" viewBox="0 0 64 64" width="512" xmlns="http://www.w3.org/2000/svg"><g id="Layer_16" data-name="Layer 16"><g fill="#82cd48"><path d="m14.2 27.3h-7a4.7 4.7 0 0 0 0 9.4h7a4.7 4.7 0 0 0 0-9.4z"/><path d="m32 2.5a4.71 4.71 0 0 0 -4.7 4.7v7a4.7 4.7 0 0 0 9.4 0v-7a4.71 4.71 0 0 0 -4.7-4.7z"/><path d="m56.8 27.3h-7a4.7 4.7 0 0 0 0 9.4h7a4.7 4.7 0 1 0 0-9.4z"/><path d="m32 45.11a4.7 4.7 0 0 0 -4.7 4.69v7a4.7 4.7 0 0 0 9.4 0v-7a4.7 4.7 0 0 0 -4.7-4.69z"/></g><path d="m17.78 11.14a4.7 4.7 0 0 0 -6.64 6.64l4.95 4.95a4.7 4.7 0 0 0 6.64-6.64z" fill="#389238"/><path d="m52.86 46.22-5-4.95a4.7 4.7 0 0 0 -6.64 6.64l4.95 5a4.71 4.71 0 0 0 6.64 0 4.71 4.71 0 0 0 0-6.64z" fill="#389238"/><path d="m19.41 39.89a4.67 4.67 0 0 0 -3.32 1.38l-4.95 4.95a4.71 4.71 0 0 0 0 6.64 4.71 4.71 0 0 0 6.64 0l4.95-5a4.7 4.7 0 0 0 0-6.64 4.65 4.65 0 0 0 -3.32-1.33z" fill="#389238"/></g></svg>