<svg id="Capa_1" enable-background="new 0 0 512 512" height="512" viewBox="0 0 512 512" width="512" xmlns="http://www.w3.org/2000/svg"><g><g><g><g><g><g><g><g><circle cx="256" cy="256" fill="#ffce00" r="256"/></g></g></g></g></g></g></g><path d="m367.943 131.256-64.966-64.966-169.943 233.935 48.95 48.95-78.28 37.944 123.252 123.251c9.533 1.076 19.224 1.63 29.044 1.63 141.385 0 256-114.615 256-256 0-.481-.001-.961-.004-1.441l-133.03-133.03z" fill="#ffa300"/><g><g><path d="m408.296 387.119-57.206-1.328-30.647 48.323-77.822-145.481 87.853-46.995z" fill="#ff432e"/></g><g><path d="m103.704 387.119 57.206-1.328 30.647 48.323 77.822-145.481-87.853-46.995z" fill="#ff6c52"/></g></g><g><path d="m256 80.888-46.978-14.598-29.424 39.409-46.564 15.83-.696 49.165-28.327 40.183 28.327 40.183.696 49.165 46.564 15.83 29.425 39.409 46.977-14.598 1.68-2.391 10.896-128.459-11.188-127.598z" fill="#00c8c8"/></g><g><path d="m407.989 210.877-28.327 40.183-.696 49.165-46.564 15.83-29.424 39.409-46.978-14.598v-259.978l46.977-14.598 29.425 39.409 46.564 15.83.696 49.165z" fill="#00a0aa"/></g><g><path d="m256 110.385c-55.5 0-100.492 44.992-100.492 100.492s44.992 100.492 100.492 100.492c.164 0 .327-.005.491-.006l10-100.486-10-100.485c-.164-.001-.327-.007-.491-.007z" fill="#fff"/></g><g><path d="m356.492 210.877c0 55.5-44.992 100.492-100.492 100.492v-200.984c55.5 0 100.492 44.992 100.492 100.492z" fill="#e9edf5"/></g><g><path d="m223.309 228.787-25.112-25.112-21.213 21.213 46.325 46.325 33.182-33.183 5.509-24.298-5.509-18.128z" fill="#7584f2"/></g><g><path d="m256 238.522v-42.427l46.1-46.099 21.212 21.213z" fill="#606aea"/></g></g></svg>