<svg id="Layer_1" enable-background="new 0 0 512 512" viewBox="0 0 512 512" xmlns="http://www.w3.org/2000/svg"><g clip-rule="evenodd" fill-rule="evenodd"><path d="m339.968 460.042c3.594-1.389 7.634.398 9.023 3.992s-.398 7.634-3.992 9.023c-27.536 10.642-56.887 16.131-86.3 16.452-25.655.28-51.354-3.377-75.936-10.981l6.732 14.545c1.616 3.503.086 7.654-3.418 9.27-3.503 1.616-7.654.086-9.27-3.418l-13.635-29.46c-1.616-3.503-.086-7.654 3.418-9.27l29.46-13.635c3.503-1.616 7.654-.086 9.27 3.418 1.616 3.503.086 7.654-3.418 9.27l-13.709 6.345c22.811 6.91 46.623 10.232 70.397 9.972 27.721-.303 55.397-5.482 81.378-15.523zm120.074-288.01c-1.389-3.594.398-7.634 3.992-9.023s7.634.398 9.023 3.992c10.642 27.536 16.131 56.887 16.452 86.3.28 25.655-3.377 51.354-10.981 75.936l14.545-6.732c3.503-1.616 7.654-.086 9.27 3.418 1.616 3.503.086 7.654-3.418 9.27l-29.46 13.635c-3.503 1.616-7.654.086-9.27-3.418l-13.635-29.46c-1.616-3.503-.086-7.654 3.418-9.27 3.503-1.616 7.654-.086 9.27 3.418l6.345 13.709c6.91-22.811 10.232-46.623 9.972-70.397-.303-27.721-5.482-55.397-15.523-81.378zm-288.01-120.074c-3.594 1.389-7.634-.398-9.024-3.992-1.389-3.594.398-7.634 3.992-9.023 27.536-10.642 56.887-16.131 86.3-16.452 25.655-.28 51.354 3.377 75.936 10.981l-6.732-14.545c-1.616-3.503-.086-7.654 3.418-9.27 3.503-1.616 7.654-.086 9.27 3.418l13.635 29.46c1.616 3.503.086 7.654-3.418 9.269l-29.46 13.635c-3.503 1.616-7.654.086-9.27-3.418-1.616-3.503-.086-7.654 3.418-9.27l13.709-6.345c-22.811-6.91-46.623-10.232-70.397-9.972-27.72.304-55.397 5.483-81.377 15.524zm-120.074 288.01c1.389 3.594-.398 7.634-3.992 9.023s-7.634-.398-9.023-3.992c-10.643-27.535-16.132-56.886-16.453-86.299-.28-25.655 3.377-51.354 10.981-75.936l-14.545 6.732c-3.503 1.616-7.654.086-9.269-3.418-1.616-3.503-.086-7.654 3.418-9.27l29.46-13.635c3.503-1.616 7.654-.086 9.27 3.418l13.635 29.46c1.616 3.503.086 7.654-3.418 9.27-3.503 1.616-7.654.086-9.27-3.418l-6.345-13.709c-6.91 22.811-10.232 46.623-9.972 70.397.303 27.72 5.482 55.397 15.523 81.377z" fill="#c7e0ec"/><g><path d="m335.835 326.91c0 44.09-159.67 44.09-159.67 0 0-44.089 35.747-79.832 79.838-79.832 44.09 0 79.832 35.743 79.832 79.832z" fill="#66d4f1"/><path d="m219.104 188.915c0 20.38 16.519 36.899 36.898 36.899s36.899-16.519 36.899-36.899c0-20.373-16.519-36.892-36.899-36.892-20.379 0-36.898 16.519-36.898 36.892z" fill="#efc7a4"/></g><g><ellipse cx="85.549" cy="85.549" fill="#c6ea94" rx="69.549" ry="69.549" transform="matrix(.973 -.23 .23 .973 -17.367 21.944)"/><path d="m52.801 92.549c-3.866 0-7-3.134-7-7s3.134-7 7-7h25.748v-25.748c0-3.866 3.134-7 7-7s7 3.134 7 7v25.748h25.748c3.866 0 7 3.134 7 7s-3.134 7-7 7h-25.748v25.748c0 3.866-3.134 7-7 7s-7-3.134-7-7v-25.748z" fill="#f4f6f8"/></g><g><ellipse cx="426.451" cy="85.549" fill="#f76c82" rx="69.549" ry="69.549" transform="matrix(.707 -.707 .707 .707 64.412 326.603)"/><g fill="#fdcd56"><path d="m419.451 50.775c0-3.866 3.134-7 7-7s7 3.134 7 7v50.089c0 3.866-3.134 7-7 7s-7-3.134-7-7z"/><path d="m426.451 126.915c3.856 0 7-3.145 7-7s-3.144-7-7-7-7 3.145-7 7 3.144 7 7 7z"/></g></g><g><ellipse cx="426.451" cy="426.45" fill="#66d4f1" rx="69.549" ry="69.549" transform="matrix(.707 -.707 .707 .707 -176.641 426.451)"/><path d="m377.618 426.171c-2.416-3.005-1.939-7.4 1.066-9.816s7.4-1.939 9.816 1.066l21.857 27.081 50.255-45.295c2.869-2.582 7.289-2.35 9.871.52 2.582 2.869 2.35 7.289-.52 9.871l-55.729 50.228-.005-.006c-.096.086-.194.17-.296.252-3.005 2.416-7.4 1.939-9.816-1.066z" fill="#f4f6f8"/></g><g><ellipse cx="85.549" cy="426.45" fill="#fdcd56" rx="69.549" ry="69.549" transform="matrix(.973 -.23 .23 .973 -95.69 31.063)"/><g fill="#f76c82"><path d="m85.549 467.816c3.856 0 7-3.145 7-7s-3.144-7-7-7-7 3.145-7 7c0 3.856 3.144 7 7 7z"/><path d="m72.68 411.545c0 3.866-3.134 7-7 7s-7-3.134-7-7c0-7.419 3.008-14.136 7.87-18.999 4.863-4.862 11.58-7.87 18.999-7.87s14.137 3.008 18.999 7.87c4.863 4.863 7.87 11.58 7.87 18.999 0 5.746-1.817 11.081-4.909 15.463-3.173 4.497-7.697 7.978-12.983 9.855-.629.223-1.128.598-1.459 1.065-.332.47-.518 1.078-.518 1.767v2.069c0 3.866-3.134 7-7 7s-7-3.134-7-7v-2.069c0-3.621 1.11-7.004 3.088-9.806 1.98-2.805 4.807-4.987 8.24-6.206 2.521-.896 4.682-2.561 6.202-4.714 1.473-2.088 2.339-4.648 2.339-7.424 0-3.554-1.44-6.772-3.769-9.1-2.328-2.328-5.546-3.769-9.1-3.769s-6.772 1.441-9.1 3.769-3.769 5.546-3.769 9.1z"/></g></g></g></svg>