<svg enable-background="new 0 0 512 512" height="512" viewBox="0 0 512 512" width="512" xmlns="http://www.w3.org/2000/svg"><g id="_x32_1_Team"><g><g><g><path d="m299.887 67.957c0 24.26-19.667 43.872-43.927 43.872-24.205 0-43.872-19.613-43.872-43.872 0-24.205 19.667-43.872 43.872-43.872 24.26 0 43.927 19.667 43.927 43.872z" fill="#1367f7"/></g><g><path d="m309.345 224.993h-106.69c-24.506 0-39.643-26.714-27.102-47.768 16.318-27.395 46.226-45.77 80.348-45.77 34.254 0 64.204 18.369 80.54 45.758 12.555 21.053-2.585 47.78-27.096 47.78z" fill="#7eb4fa"/></g></g><g><g><g><path d="m140.933 330.88c0 24.259-19.667 43.872-43.927 43.872-24.205 0-43.872-19.613-43.872-43.872 0-24.205 19.667-43.872 43.872-43.872 24.26-.001 43.927 19.666 43.927 43.872z" fill="#1367f7"/></g><g><path d="m150.391 487.915h-106.691c-24.506 0-39.643-26.714-27.102-47.768 16.318-27.395 46.226-45.77 80.348-45.77 34.254 0 64.204 18.369 80.54 45.758 12.556 21.053-2.584 47.78-27.095 47.78z" fill="#7eb4fa"/></g></g><g><g><path d="m458.841 330.88c0 24.259-19.667 43.872-43.927 43.872-24.205 0-43.872-19.613-43.872-43.872 0-24.205 19.667-43.872 43.872-43.872 24.26-.001 43.927 19.666 43.927 43.872z" fill="#1367f7"/></g><g><path d="m468.298 487.915h-106.69c-24.506 0-39.643-26.714-27.102-47.768 16.318-27.395 46.226-45.77 80.348-45.77 34.254 0 64.204 18.369 80.54 45.758 12.556 21.053-2.584 47.78-27.096 47.78z" fill="#7eb4fa"/></g></g></g><g><g><path d="m214.169 380.083-11.579-10.665 45.528-49.443v-63.427h15.736v69.574z" fill="#3aa757"/></g><g><path d="m271.934 313.759h15.742v70.282h-15.742z" fill="#3aa757" transform="matrix(.736 -.677 .677 .736 -162.366 281.767)"/></g></g></g></g></svg>