<svg enable-background="new 0 0 512 512" viewBox="0 0 512 512" xmlns="http://www.w3.org/2000/svg"><g id="_x33_0_x2C__Timeline_x2C__priority_x2C__structure_x2C__experience_x2C__infographic_x2C__workflow"><g><g><g><path id="XMLID_359_" d="m141.51 415.37h343.469v95.63h-343.469z" fill="#9573bb"/><path id="XMLID_358_" d="m141.51 277.253h343.469v95.62h-343.469z" fill="#f3d064"/><path id="XMLID_357_" d="m141.51 139.127h343.469v95.62h-343.469z" fill="#df646e"/><path id="XMLID_356_" d="m141.51 1h343.469v95.63h-343.469z" fill="#acd980"/><g fill="#d3effd"><path d="m432.939 197.35h-239.388c-5.748 0-10.408-4.66-10.408-10.408s4.66-10.408 10.408-10.408h239.388c5.748 0 10.408 4.66 10.408 10.408s-4.66 10.408-10.408 10.408z"/><path d="m432.939 59.224h-239.388c-5.748 0-10.408-4.66-10.408-10.408s4.66-10.408 10.408-10.408h239.388c5.748 0 10.408 4.66 10.408 10.408s-4.66 10.408-10.408 10.408z"/><path d="m58.245 176.534c-5.748 0-10.408-4.66-10.408-10.408v-96.494c0-5.748 4.66-10.408 10.408-10.408s10.408 4.66 10.408 10.408v96.494c0 5.748-4.66 10.408-10.408 10.408z"/><path d="m58.245 314.65c-5.748 0-10.408-4.66-10.408-10.408v-96.483c0-5.748 4.66-10.408 10.408-10.408s10.408 4.66 10.408 10.408v96.483c0 5.747-4.66 10.408-10.408 10.408z"/><path d="m58.245 452.776c-5.748 0-10.408-4.66-10.408-10.408v-96.494c0-5.748 4.66-10.408 10.408-10.408s10.408 4.66 10.408 10.408v96.494c0 5.748-4.66 10.408-10.408 10.408z"/><path d="m432.939 335.466h-239.388c-5.748 0-10.408-4.66-10.408-10.408s4.66-10.408 10.408-10.408h239.388c5.748 0 10.408 4.66 10.408 10.408s-4.66 10.408-10.408 10.408z"/><path d="m432.939 473.593h-239.388c-5.748 0-10.408-4.66-10.408-10.408s4.66-10.408 10.408-10.408h239.388c5.748 0 10.408 4.66 10.408 10.408s-4.66 10.408-10.408 10.408z"/></g><circle id="XMLID_352_" cx="58.245" cy="463.185" fill="#9573bb" r="31.224"/><circle id="XMLID_339_" cx="58.245" cy="325.058" fill="#f3d064" r="31.224"/><circle id="XMLID_338_" cx="58.245" cy="186.942" fill="#df646e" r="31.224"/><circle id="XMLID_330_" cx="58.245" cy="48.815" fill="#acd980" r="31.224"/></g></g></g></g><g id="Layer_1"/></svg>