<svg id="Capa_1" enable-background="new 0 0 512 512" viewBox="0 0 512 512" xmlns="http://www.w3.org/2000/svg"><g><g><path d="m34.714 64.386v416.708c0 17.069 13.837 30.905 30.905 30.905h337.088v-447.613z" fill="#f3f0f3"/></g><g><path d="m349.746 64.386v394.044c0 5.69-4.612 10.302-10.302 10.302h-304.73v12.362c0 17.069 13.837 30.905 30.905 30.905h337.088v-447.613z" fill="#e2dee2"/></g><g><g><path d="m402.707 30.905c0-17.068-13.837-30.905-30.905-30.905h-306.183c-17.068 0-30.905 13.837-30.905 30.905v34.511h367.993z" fill="#6e61b6"/></g></g><g><g><path d="m371.802 0h-22.055v65.416h52.961v-34.511c-.001-17.068-13.838-30.905-30.906-30.905z" fill="#6354b1"/></g></g><g><g><g><circle cx="123.934" cy="155.802" fill="#fed402" r="51.509"/></g><g><path d="m134.776 105.446c5.635 8.259 8.934 18.239 8.934 28.992 0 28.448-23.061 51.509-51.509 51.509-3.721 0-7.345-.404-10.842-1.153 9.273 13.591 24.88 22.517 42.575 22.517 28.448 0 51.509-23.061 51.509-51.509 0-24.727-17.427-45.375-40.667-50.356z" fill="#fac600"/></g></g><g><g><path d="m434.308 198.78h-180.695c-23.736 0-42.978-19.242-42.978-42.978 0-23.736 19.242-42.978 42.978-42.978h180.695c23.736 0 42.978 19.242 42.978 42.978 0 23.737-19.242 42.978-42.978 42.978z" fill="#fed402"/></g><g><path d="m439.289 113.121v38.169c0 5.69-4.612 10.302-10.302 10.302h-217.953c2.829 20.997 20.807 37.189 42.579 37.189h180.695c23.736 0 42.978-19.242 42.978-42.978 0-22.051-16.609-40.212-37.997-42.682z" fill="#fac600"/></g></g><g><g><path d="m125.012 181.331c-4.142 0-7.5-3.357-7.5-7.5v-28.557h-.207c-4.142 0-7.5-3.357-7.5-7.5s3.358-7.5 7.5-7.5h7.707c4.142 0 7.5 3.357 7.5 7.5v36.057c0 4.143-3.358 7.5-7.5 7.5z" fill="#fff"/></g></g><g><path d="m431.559 163.303h-175.197c-4.142 0-7.5-3.357-7.5-7.5s3.358-7.5 7.5-7.5h175.197c4.142 0 7.5 3.357 7.5 7.5s-3.358 7.5-7.5 7.5z" fill="#fff"/></g></g><g><g><g><path d="m120.351 319.359c-11.133 0-11.987-.286-12.997-.622-2.454-.818-4.29-2.681-5.037-5.109-1.26-4.095.708-6.67 4.278-11.346 2.901-3.798 8.3-10.868 17.35-23.798 2.485-3.551 4.153-6.822 4.841-9.487l.158-1.239c-.205-3.755-3.324-6.746-7.129-6.746-3.405 0-6.351 2.417-7.005 5.747-.798 4.064-4.739 6.714-8.805 5.914-4.064-.798-6.712-4.74-5.914-8.805 2.032-10.347 11.168-17.856 21.724-17.856 12.208 0 22.14 9.932 22.14 22.14 0 .317-.02.635-.061.95l-.283 2.213c-.032.25-.076.499-.133.744-1.076 4.641-3.513 9.696-7.244 15.026-5.271 7.531-9.333 13.119-12.4 17.252 4.633-.017 9.931-.062 14.951-.124 4.148-.096 7.542 3.263 7.594 7.405s-3.264 7.541-7.405 7.593c-8.234.103-14.23.148-18.623.148z" fill="#6e61b6"/></g></g><g><g><path d="m318.638 312.842h-127.742c-4.142 0-7.5-3.357-7.5-7.5s3.358-7.5 7.5-7.5h127.743c4.142 0 7.5 3.357 7.5 7.5s-3.359 7.5-7.501 7.5z" fill="#978ecb"/></g><g><path d="m318.638 267.514h-127.742c-4.142 0-7.5-3.357-7.5-7.5s3.358-7.5 7.5-7.5h127.743c4.142 0 7.5 3.357 7.5 7.5s-3.359 7.5-7.501 7.5z" fill="#978ecb"/></g></g></g><g><path d="m140.706 386.622c0-12.208-9.932-22.14-22.14-22.14-10.556 0-19.692 7.51-21.724 17.856-.798 4.064 1.849 8.006 5.914 8.805 4.064.797 8.007-1.85 8.805-5.914.654-3.33 3.6-5.747 7.005-5.747 3.937 0 7.14 3.203 7.14 7.14s-3.203 7.14-7.14 7.14c-4.142 0-7.5 3.357-7.5 7.5s3.358 7.5 7.5 7.5c3.937 0 7.14 3.203 7.14 7.14s-3.203 7.14-7.14 7.14c-3.542 0-6.583-2.638-7.07-6.131-.046-.332-.07-.672-.07-1.009 0-4.143-3.358-7.5-7.5-7.5s-7.5 3.357-7.5 7.5c0 1.026.072 2.061.213 3.079 1.517 10.866 10.943 19.061 21.927 19.061 12.208 0 22.14-9.932 22.14-22.14 0-5.609-2.101-10.734-5.551-14.64 3.45-3.906 5.551-9.031 5.551-14.64z" fill="#6e61b6"/><g><g><path d="m287.733 431.426h-96.837c-4.142 0-7.5-3.357-7.5-7.5s3.358-7.5 7.5-7.5h96.837c4.142 0 7.5 3.357 7.5 7.5s-3.358 7.5-7.5 7.5z" fill="#978ecb"/></g><g><path d="m318.638 386.098h-127.742c-4.142 0-7.5-3.357-7.5-7.5s3.358-7.5 7.5-7.5h127.743c4.142 0 7.5 3.357 7.5 7.5s-3.359 7.5-7.501 7.5z" fill="#978ecb"/></g></g></g><g><g><g><path d="m359.02 284.686h19.243v89.85c7.811-2.988 16.276-4.641 25.124-4.641 8.844 0 17.306 1.651 25.114 4.637v-89.846h19.254c4.75 0 7.139-5.732 3.796-9.106l-44.372-44.782c-2.091-2.11-5.502-2.11-7.593.001l-44.363 44.782c-3.343 3.374-.953 9.105 3.797 9.105z" fill="#00f2a6"/></g><g><path d="m451.551 275.58-44.372-44.782c-1.217-1.229-2.88-1.72-4.472-1.518v107.074c0 5.69-4.612 10.302-10.302 10.302h-14.143v27.881c7.811-2.988 16.276-4.641 25.124-4.641 8.844 0 17.306 1.651 25.114 4.637v-89.846h19.254c4.75-.001 7.14-5.733 3.797-9.107z" fill="#05e39c"/></g><g><g><circle cx="403.387" cy="440.432" fill="#fed402" r="71.568"/></g><g><path d="m424.703 372.094c11.048 12.595 17.76 29.089 17.76 47.16 0 39.526-32.042 71.567-71.568 71.567-7.424 0-14.583-1.131-21.316-3.229 13.117 14.954 32.353 24.408 53.808 24.408 39.526 0 71.568-32.042 71.568-71.568 0-32.102-21.137-59.266-50.252-68.338z" fill="#fac600"/></g></g></g><path d="m436.868 415.149h-4.124l1.194-4.457c1.072-4.001-1.303-8.114-5.304-9.186-3.996-1.073-8.113 1.302-9.186 5.303l-2.235 8.34h-15.358l1.194-4.457c1.072-4.001-1.303-8.114-5.304-9.186-3.997-1.073-8.113 1.302-9.186 5.303l-2.235 8.34h-8.144c-4.142 0-7.5 3.357-7.5 7.5s3.358 7.5 7.5 7.5h4.125l-4.257 15.888h-8.144c-4.142 0-7.5 3.357-7.5 7.5s3.358 7.5 7.5 7.5h4.125l-1.195 4.458c-1.072 4.001 1.303 8.114 5.304 9.186.65.175 1.303.258 1.946.258 3.311 0 6.342-2.21 7.24-5.561l2.235-8.341h15.358l-1.195 4.458c-1.072 4.001 1.303 8.114 5.304 9.186.65.175 1.303.258 1.946.258 3.311 0 6.342-2.21 7.24-5.561l2.235-8.341h8.144c4.142 0 7.5-3.357 7.5-7.5s-3.358-7.5-7.5-7.5h-4.125l4.257-15.888h8.144c4.142 0 7.5-3.357 7.5-7.5s-3.357-7.5-7.499-7.5zm-27.931 30.888h-15.357l4.257-15.888h15.358z" fill="#fff"/></g><g><g><path d="m74.078 40.208h-1.653c-4.142 0-7.5-3.357-7.5-7.5s3.358-7.5 7.5-7.5h1.653c4.142 0 7.5 3.357 7.5 7.5s-3.358 7.5-7.5 7.5z" fill="#978ecb"/></g><g><path d="m104.246 40.208h-1.653c-4.142 0-7.5-3.357-7.5-7.5s3.358-7.5 7.5-7.5h1.653c4.142 0 7.5 3.357 7.5 7.5s-3.358 7.5-7.5 7.5z" fill="#978ecb"/></g><g><path d="m134.414 40.208h-1.653c-4.142 0-7.5-3.357-7.5-7.5s3.358-7.5 7.5-7.5h1.653c4.142 0 7.5 3.357 7.5 7.5s-3.358 7.5-7.5 7.5z" fill="#978ecb"/></g></g></g><g/><g/><g/><g/><g/><g/><g/><g/><g/><g/><g/><g/><g/><g/><g/></svg>