<svg clip-rule="evenodd" fill-rule="evenodd" height="1.707in" image-rendering="optimizeQuality" shape-rendering="geometricPrecision" text-rendering="geometricPrecision" viewBox="0 0 1.70666 1.70666" width="1.707in" xmlns="http://www.w3.org/2000/svg"><g id="Layer_x0020_1"><path d="m1.02657 1.63757h-.346508c-.0110394 0-.02-.00897244-.02-.02v-.199787c0-.0110394.00896063-.02.02-.02l.346492-.00000394c.0110394 0 .02.0089685.02.02v.199787c.00001575.0110276-.00893701.0200039-.0199843.0200039z" fill="#445ea0"/><path d="m.660067 1.46445v-.0466614c0-.0110394.00896063-.02.02-.02l.346492-.00000394c.0110394 0 .02.0089685.02.02v.0466654h-.386492z" fill="#405793"/><path d="m1.0615 1.43778h-.416343c-.056874 0-.103154-.0462795-.103154-.103165v-.116622c0-.0110394.00896063-.02.02-.02h.582657c.0110394 0 .02.0089685.02.02v.116622c0 .0568858-.0462756.103165-.103161.103165z" fill="#293d7c"/><path d="m.542 1.26466v-.0466654c0-.0110394.00896063-.02.02-.02h.582657c.0110394 0 .02.0089685.02.02v.0466654z" fill="#29396c"/><path d="m1.30126 1.63757h-.895854c-.0110354 0-.0199961-.00897244-.0199961-.02 0-.0110276.00896063-.02.0199961-.02h.895854c.0110394 0 .02.00897244.02.02 0 .0110276-.00896063.02-.02.02z" fill="#293d7c"/><path d="m1.61626 1.238h-1.52589c-.0498307 0-.0903701-.0405433-.0903701-.090374v-.988157c0-.0498307.0405394-.0903701.0903701-.0903701l1.52589-.00000394c.0498307 0 .0903858.0405394.0903858.0903701v.988157c-.00001575.0498346-.0405551.090378-.0903858.090378z" fill="#445ea0"/><path d="m.475307 1.238h-.04v-.209063h-.169402v.209063h-.04v-.247677c0-.021315.00896063-.0386142.02-.0386142h.209402c.0110394 0 .02.017315.02.0386142z" fill="#687db3"/><path d="m1.53126 1.08262h-1.35588c-.0110394 0-.02-.00897244-.02-.02v-.818161c0-.0110394.00896063-.0199961.02-.0199961h1.35588c.0110394 0 .02.00895669.02.0199961v.818161c0 .0110276-.00897244.02-.02.02z" fill="#fff"/><path d="m.54228.9315c-.153264 0-.277957-.124693-.277957-.277957s.124693-.277937.277957-.277937.277937.124689.277937.277937-.124689.277957-.277937.277957z" fill="#1f6fda"/><path d="m.499157.755181c-.0430394 0-.0780591-.0350118-.0780591-.0780551v-.105209c0-.0110394.00896063-.02.02-.02.0110394 0 .02.00896063.02.02v.105209c0 .0209843.0170709.0380551.0380591.0380551.0209843 0 .0380551-.0170709.0380551-.0380551v-.105209c0-.0110394.00896063-.02.02-.02.0110394 0 .02.00896063.02.02v.105209c-.00000394.0430433-.0350197.0780551-.0780551.0780551z" fill="#eef6ff"/><path d="m.643433.755181c-.0110394 0-.02-.00896063-.02-.02v-.163264c0-.0110394.00896063-.02.02-.02.0110394 0 .02.00896063.02.02v.163264c0 .0110394-.00896063.02-.02.02z" fill="#eef6ff"/><path d="m1.16438.9315c-.153264 0-.277957-.124693-.277957-.277957s.124693-.277937.277957-.277937c.15326 0 .277969.124689.277969.277937s-.124709.277957-.277969.277957z" fill="#95d259"/><g fill="#eef6ff"><path d="m1.08367.755181c-.0430394 0-.0780591-.0350118-.0780591-.0780551v-.105209c0-.0110394.00897244-.02.02-.02.0110315 0 .02.00896063.02.02v.105209c0 .0209843.0170709.0380551.0380433.0380551.0209685 0 .0380551-.0170709.0380551-.0380551v-.105209c0-.0110394.00897244-.02.02-.02.0110315 0 .02.00896063.02.02v.105209c.00002756.0430433-.0349843.0780551-.0780394.0780551z"/><path d="m1.2215.744252c-.00340157 0-.00683465-.00087795-.00998425-.0026811-.00957087-.00551181-.0128465-.017748-.0073189-.0273189l.081626-.14139c.00552756-.00956693.0177913-.0128031.0273189-.00731496.00956693.00550787.0128425.0177441.00731496.027315l-.081626.14139c-.00370472.00639764-.0104291.01-.0173307.01z"/><path d="m1.30317.744252c-.00690551 0-.0136299-.00358661-.0173346-.01l-.0816378-.14139c-.00551181-.00957087-.00225197-.0217913.0073189-.027315.00952756-.00551181.0217795-.00226378.027315.00731496l.0816378.14139c.00551181.00957087.00225197.0217913-.0073189.0273189-.00314961.00180315-.00658268.0026811-.00998031.0026811z"/></g></g></svg>