<svg height="512" viewBox="0 0 32 32" width="512" xmlns="http://www.w3.org/2000/svg"><g id="_78_web_secure" data-name="78 web secure"><path d="m26 3v11a1 1 0 0 1 -.42.81 1 1 0 0 1 -.9.14l-.68-.23-2-.67-5.86 2v.18a14.42 14.42 0 0 0 2.59 8.24 1 1 0 0 1 .07 1 1 1 0 0 1 -.53.46.73.73 0 0 1 -.36.08h-14.91a1 1 0 0 1 -1-1v-22.01a1 1 0 0 1 1-1h22a1 1 0 0 1 1 1z" fill="#655e68"/><path d="m26 6v4h-24v-7a1 1 0 0 1 1-1h1a4 4 0 0 0 4 4z" opacity=".13"/><path d="m24 8v6.75l-2-.67-5.86 2v.18a14.51 14.51 0 0 0 2.59 8.27 1 1 0 0 1 .07 1 1 1 0 0 1 -.53.46h-14.27v-17.99z" fill="#c4d3f1"/><path d="m18.8 25.54a1 1 0 0 1 -.53.46h-14.27v-18h2v11a5 5 0 0 0 5 5h7.41c.1.17.21.34.32.5a1 1 0 0 1 .07 1.04z" fill="#8ab2e9" opacity=".2"/><path d="m21 6h-4a1 1 0 0 1 0-2h4a1 1 0 0 1 0 2z" fill="#ffc269"/><path d="m26 8v2h-24v-2zm-11 5a1 1 0 0 0 -1-1h-7a1 1 0 0 0 0 2h7a1 1 0 0 0 1-1zm-2 4a1 1 0 0 0 -1-1h-5a1 1 0 0 0 0 2h5a1 1 0 0 0 1-1zm0 4a1 1 0 0 0 -1-1h-5a1 1 0 0 0 0 2h5a1 1 0 0 0 1-1z" fill="#fff"/><path d="m29.86 15.29v.9a16.38 16.38 0 0 1 -7.3 13.64 1 1 0 0 1 -.56.17 1 1 0 0 1 -.55-.17 16.37 16.37 0 0 1 -7.31-13.64v-.9a1 1 0 0 1 .68-.95l6.86-2.29a1 1 0 0 1 .64 0l6.86 2.29a1 1 0 0 1 .68.95z" fill="#ff8086"/><path d="m29.86 15.29v.9a16.38 16.38 0 0 1 -7.3 13.64 1 1 0 0 1 -.56.17 1 1 0 0 1 -.55-.17 16.37 16.37 0 0 1 -7.31-13.64v-.9a.78.78 0 0 1 0-.22 16.38 16.38 0 0 0 2.92 8.5 16.21 16.21 0 0 0 4.36 4.26 1 1 0 0 0 .58.17 1 1 0 0 0 .56-.17 16.36 16.36 0 0 0 7.27-12.76.78.78 0 0 1 .03.22z" fill="#e5646e" opacity=".5"/><path d="m26 18.07v.42a8.35 8.35 0 0 1 -3.42 6.82 1 1 0 0 1 -1.16 0 8.35 8.35 0 0 1 -3.42-6.82v-.42a1 1 0 0 1 .66-.94l3-1.07a1 1 0 0 1 .68 0l3 1.07a1 1 0 0 1 .66.94z" fill="#fff"/><path d="m8 5a1 1 0 1 1 -1-1 1 1 0 0 1 1 1z" fill="#b3e59f"/><path d="m11 5a1 1 0 1 1 -1-1 1 1 0 0 1 1 1z" fill="#ff8086"/><path d="m14 5a1 1 0 1 1 -1-1 1 1 0 0 1 1 1z" fill="#8ab2e9"/></g></svg>