<svg id="Capa_1" enable-background="new 0 0 512 512" height="512" viewBox="0 0 512 512" width="512" xmlns="http://www.w3.org/2000/svg"><g><path d="m417.223 68.164-31.62-68.164h-259.09c-14.224 0-25.755 11.531-25.755 25.755v460.491c0 14.224 11.531 25.755 25.755 25.755h268.055l14.929-8.241 14.472 8.24h10.381c9.951 0 18.577-5.647 22.866-13.907h19.744v-399.298z" fill="#60b7ff"/><path d="m460.105 90.152v396.093c0 14.224-11.531 25.755-25.755 25.755h32.122c14.224 0 25.755-11.531 25.755-25.755 0-1.762 0-378.303 0-379.622z" fill="#26a6fe"/><path d="m317.77 266.352h-282.544c-8.534 0-15.453-6.918-15.453-15.453v-123.512c0-8.534 6.918-15.453 15.453-15.453h282.544c8.534 0 15.453 6.918 15.453 15.453v123.512c-.001 8.535-6.919 15.453-15.453 15.453z" fill="#fdb441"/><g><path d="m286.66 329.816h-118.471c-4.268 0-7.726-3.459-7.726-7.726s3.459-7.726 7.726-7.726h118.471c4.268 0 7.726 3.459 7.726 7.726s-3.458 7.726-7.726 7.726z" fill="#eaf6ff"/></g><g><path d="m286.66 382.38h-118.471c-4.268 0-7.726-3.459-7.726-7.726s3.459-7.726 7.726-7.726h118.471c4.268 0 7.726 3.459 7.726 7.726s-3.458 7.726-7.726 7.726z" fill="#eaf6ff"/></g><g><path d="m286.66 434.944h-118.471c-4.268 0-7.726-3.459-7.726-7.726s3.459-7.726 7.726-7.726h118.471c4.268 0 7.726 3.459 7.726 7.726 0 4.266-3.458 7.726-7.726 7.726z" fill="#eaf6ff"/></g><g><g><path d="m409.497 274.078h-21.862c-4.268 0-7.726-3.459-7.726-7.726s3.459-7.726 7.726-7.726h21.862c4.268 0 7.726 3.459 7.726 7.726s-3.458 7.726-7.726 7.726z" fill="#0055a3"/></g><g><path d="m409.497 310.179h-21.862c-4.268 0-7.726-3.459-7.726-7.726s3.459-7.726 7.726-7.726h21.862c4.268 0 7.726 3.459 7.726 7.726s-3.458 7.726-7.726 7.726z" fill="#0055a3"/></g><g><path d="m409.497 346.279h-21.862c-4.268 0-7.726-3.459-7.726-7.726s3.459-7.726 7.726-7.726h21.862c4.268 0 7.726 3.459 7.726 7.726s-3.458 7.726-7.726 7.726z" fill="#0055a3"/></g><g><path d="m409.497 382.38h-21.862c-4.268 0-7.726-3.459-7.726-7.726s3.459-7.726 7.726-7.726h21.862c4.268 0 7.726 3.459 7.726 7.726s-3.458 7.726-7.726 7.726z" fill="#0055a3"/></g><g><path d="m409.497 418.481h-21.862c-4.268 0-7.726-3.459-7.726-7.726s3.459-7.726 7.726-7.726h21.862c4.268 0 7.726 3.459 7.726 7.726 0 4.266-3.458 7.726-7.726 7.726z" fill="#0055a3"/></g><g><path d="m431.359 255.485h-21.862c-4.268 0-7.726-3.459-7.726-7.726s3.459-7.726 7.726-7.726h21.862c4.268 0 7.726 3.459 7.726 7.726.001 4.267-3.458 7.726-7.726 7.726z" fill="#0055a3"/></g><g><path d="m431.359 291.586h-21.862c-4.268 0-7.726-3.459-7.726-7.726s3.459-7.726 7.726-7.726h21.862c4.268 0 7.726 3.459 7.726 7.726.001 4.266-3.458 7.726-7.726 7.726z" fill="#0055a3"/></g><g><path d="m431.359 327.686h-21.862c-4.268 0-7.726-3.459-7.726-7.726s3.459-7.726 7.726-7.726h21.862c4.268 0 7.726 3.459 7.726 7.726.001 4.267-3.458 7.726-7.726 7.726z" fill="#0055a3"/></g><g><path d="m431.359 363.787h-21.862c-4.268 0-7.726-3.459-7.726-7.726s3.459-7.726 7.726-7.726h21.862c4.268 0 7.726 3.459 7.726 7.726s-3.458 7.726-7.726 7.726z" fill="#0055a3"/></g><g><path d="m431.359 399.887h-21.862c-4.268 0-7.726-3.459-7.726-7.726s3.459-7.726 7.726-7.726h21.862c4.268 0 7.726 3.459 7.726 7.726.001 4.267-3.458 7.726-7.726 7.726z" fill="#0055a3"/></g></g><g fill="#eaf6ff"><path d="m181.432 145.767c-4.268 0-7.726 3.459-7.726 7.726v67.974c0 4.267 3.459 7.726 7.726 7.726 4.268 0 7.726-3.46 7.726-7.726v-67.974c0-4.268-3.459-7.726-7.726-7.726z"/><path d="m128.868 214.256h-31.09l36.508-56.03c1.547-2.375 1.67-5.407.319-7.9-1.351-2.492-3.958-4.044-6.793-4.044h-42.896c-4.268 0-7.726 3.459-7.726 7.726s3.459 7.726 7.726 7.726h28.64l-36.508 56.029c-1.547 2.375-1.67 5.407-.319 7.899s3.958 4.045 6.793 4.045h45.346c4.268 0 7.726-3.46 7.726-7.726.001-4.267-3.458-7.725-7.726-7.725z"/><path d="m252.923 146.282h-18.928c-2.503 0-5.087 1.501-5.472 2.272-1.455 1.455-2.255 3.473-2.255 5.455v67.974c0 4.267 3.459 7.726 7.726 7.726 4.268 0 7.726-3.46 7.726-7.726v-21.843c4.001-.021 8.61-.042 11.201-.042 15.044 0 27.284-12.071 27.284-26.908.001-14.837-12.238-26.908-27.282-26.908zm0 38.364c-2.572 0-7.126.02-11.113.041-.062-12.64-.022-7.466-.065-22.953h11.178c6.413 0 11.831 5.246 11.831 11.456s-5.418 11.456-11.831 11.456z"/></g><path d="m411.358 106.624h80.869l-106.624-106.624v80.869c0 14.224 11.531 25.755 25.755 25.755z" fill="#fec165"/><g><path d="m409.497 473.883c-4.268 0-7.726-3.459-7.726-7.726v-244.175c0-4.267 3.459-7.726 7.726-7.726s7.726 3.459 7.726 7.726v244.175c0 4.267-3.458 7.726-7.726 7.726z" fill="#fec165"/></g><path d="m420.32 444.008h-22.102c-2.725 0-4.981 2.118-5.154 4.838l-3.65 57.664c-.188 2.974 2.173 5.49 5.154 5.49h29.401c2.98 0 5.342-2.516 5.154-5.49l-3.65-57.664c-.172-2.72-2.428-4.838-5.153-4.838z" fill="#0055a3"/></g></svg>